<?xml version="1.0" encoding="UTF-8" standalone="no"?>
<!-- Created with Inkscape (http://www.inkscape.org/) -->

<svg
   width="48"
   height="48"
   viewBox="0 0 12.7 12.7"
   version="1.1"
   id="svg1"
   inkscape:version="1.4.2 (ebf0e940d0, 2025-05-08)"
   sodipodi:docname="favIconNhomNhom.svg"
   xmlns:inkscape="http://www.inkscape.org/namespaces/inkscape"
   xmlns:sodipodi="http://sodipodi.sourceforge.net/DTD/sodipodi-0.dtd"
   xmlns="http://www.w3.org/2000/svg"
   xmlns:svg="http://www.w3.org/2000/svg">
  <sodipodi:namedview
     id="namedview1"
     pagecolor="#ffffff"
     bordercolor="#000000"
     borderopacity="0.25"
     inkscape:showpageshadow="2"
     inkscape:pageopacity="0.0"
     inkscape:pagecheckerboard="0"
     inkscape:deskcolor="#d1d1d1"
     inkscape:document-units="mm"
     inkscape:zoom="5.6016835"
     inkscape:cx="40.523532"
     inkscape:cy="26.242111"
     inkscape:window-width="1920"
     inkscape:window-height="997"
     inkscape:window-x="0"
     inkscape:window-y="0"
     inkscape:window-maximized="1"
     inkscape:current-layer="layer1" />
  <defs
     id="defs1">
    <rect
       x="58.571239"
       y="215.09782"
       width="296.77667"
       height="257.08298"
       id="rect9" />
    <inkscape:path-effect
       effect="fillet_chamfer"
       id="path-effect9"
       is_visible="true"
       lpeversion="1"
       nodesatellites_param="F,0,0,1,0,5.2916665,0,1 @ F,0,0,1,0,5.2916665,0,1 @ F,0,0,1,0,5.2916665,0,1 @ F,0,0,1,0,5.2916665,0,1 @ F,0,0,1,0,5.2916665,0,1 @ F,0,0,1,0,5.2916665,0,1"
       radius="20"
       unit="px"
       method="auto"
       mode="F"
       chamfer_steps="1"
       flexible="false"
       use_knot_distance="true"
       apply_no_radius="true"
       apply_with_radius="true"
       only_selected="false"
       hide_knots="false" />
    <inkscape:path-effect
       effect="fillet_chamfer"
       id="path-effect7"
       is_visible="true"
       lpeversion="1"
       nodesatellites_param="F,0,0,1,0,5.2916665,0,1 @ F,0,0,1,0,5.2916665,0,1 @ F,0,0,1,0,5.2916665,0,1 @ F,0,0,1,0,5.2916665,0,1 @ F,0,0,1,0,5.2916665,0,1 @ F,0,0,1,0,5.2916665,0,1"
       radius="20"
       unit="px"
       method="auto"
       mode="F"
       chamfer_steps="1"
       flexible="false"
       use_knot_distance="true"
       apply_no_radius="true"
       apply_with_radius="true"
       only_selected="false"
       hide_knots="false" />
    <inkscape:path-effect
       effect="fillet_chamfer"
       id="path-effect5"
       is_visible="true"
       lpeversion="1"
       nodesatellites_param="F,0,0,1,0,5.2916665,0,1 @ F,0,0,1,0,5.2916665,0,1 @ F,0,0,1,0,5.2916665,0,1 @ F,0,0,1,0,5.2916665,0,1 @ F,0,0,1,0,5.2916665,0,1 @ F,0,0,1,0,5.2916665,0,1"
       radius="20"
       unit="px"
       method="auto"
       mode="F"
       chamfer_steps="1"
       flexible="false"
       use_knot_distance="true"
       apply_no_radius="true"
       apply_with_radius="true"
       only_selected="false"
       hide_knots="false" />
    <inkscape:path-effect
       effect="fillet_chamfer"
       id="path-effect4"
       is_visible="true"
       lpeversion="1"
       nodesatellites_param="F,1,0,1,0,0.06,0,1 @ F,1,0,1,0,0.06,0,1 @ F,1,0,1,0,0.06,0,1 @ F,1,0,1,0,0.06,0,1 @ F,1,0,1,0,0.18,0,1 @ F,1,0,1,0,0.06,0,1 @ F,1,0,1,0,0.14,0,1 @ F,1,0,1,0,0.06,0,1 @ F,1,0,1,0,0.19708184,0,1 @ F,1,0,1,0,0.06,0,1 @ F,1,0,1,0,0.06,0,1 @ F,1,0,1,0,0.06,0,1"
       radius="18"
       unit="px"
       method="auto"
       mode="F"
       chamfer_steps="1"
       flexible="true"
       use_knot_distance="true"
       apply_no_radius="true"
       apply_with_radius="true"
       only_selected="true"
       hide_knots="false" />
    <inkscape:path-effect
       effect="fillet_chamfer"
       id="path-effect3"
       is_visible="true"
       lpeversion="1"
       nodesatellites_param="F,1,0,1,0,0.031485532,0,1 @ F,1,0,1,0,0.031485517,0,1 @ F,1,0,1,0,0.031485368,0,1 @ F,1,0,1,0,0.63834629,0,1 @ F,1,0,1,0,2.0062512,0,1 @ F,1,0,1,0,0.15154057,0,1 @ F,1,0,1,0,0.54615098,0,1 @ F,1,0,1,0,0.10956192,0,1 @ F,1,0,1,0,0.27443353,0,1 @ F,1,0,1,0,0.2882519,0,1 @ F,1,0,1,0,0.75401607,0,1 @ F,1,0,1,0,0.15293342,0,1"
       radius="0"
       unit="px"
       method="auto"
       mode="F"
       chamfer_steps="1"
       flexible="false"
       use_knot_distance="false"
       apply_no_radius="false"
       apply_with_radius="false"
       only_selected="false"
       hide_knots="false" />
  </defs>
  <g
     inkscape:label="Camada 1"
     inkscape:groupmode="layer"
     id="layer1">
    <g
       id="g1"
       transform="matrix(0.08309636,0,0,0.08309636,-2.3863587,-5.9907959)">
      <path
         id="path1"
         style="fill:#e1b361;fill-opacity:1;stroke:none;stroke-width:0.264583"
         d="M 97.986214,77.424228 C 64.143682,80.723123 37.22295,107.64386 33.924044,141.4864 c -0.376241,3.85975 -0.376242,10.16741 -1e-6,14.02716 3.298904,33.84253 30.219618,60.76327 64.062135,64.06217 3.859762,0.37625 10.167462,0.37627 14.027222,6e-5 36.03383,-3.51225 64.22063,-33.8044 64.40183,-70.71801 9.7e-4,-0.1976 -0.003,-0.51797 -0.003,-0.71557 0.002,-1.78238 0.30401,-4.19122 0.19136,-5.97418 -0.0137,-0.21682 -0.20993,-0.36449 -0.40918,-0.27816 -0.20742,0.0899 -0.43979,0.22113 -0.67623,0.3573 -0.69254,0.39885 -1.97899,0.59348 -2.77983,0.50779 -7.10842,-0.76062 -12.10545,-7.03254 -15.25556,-13.76868 -0.25471,-0.54466 -0.91019,-0.83024 -1.45633,-0.57933 -1.60154,0.73577 -3.73887,1.98308 -5.54146,2.64538 -1.05442,0.38741 -2.90272,0.45456 -4.02593,0.34507 -9.6141,-0.93726 -17.30854,-8.42546 -18.56216,-17.94335 -0.19805,-1.50372 -0.17951,-4.00736 0.34294,-5.42396 1.24912,-3.38693 4.47067,-6.72163 6.67908,-9.503102 0.26903,-0.338836 0.27811,-0.905704 0.0125,-1.24746 -2.47459,-3.184303 -6.24293,-6.126673 -6.42796,-10.026201 -0.008,-0.164927 -0.007,-0.433143 0.005,-0.598089 0.0815,-1.118297 0.55983,-2.388218 0.96386,-3.565008 0.26288,-0.76565 -0.18647,-1.62434 -0.9545,-1.88269 -5.13711,-1.728039 -10.90328,-3.037757 -16.5107,-3.681826 -3.85233,-0.442478 -10.16105,-0.477726 -14.020796,-0.101486 z"
         sodipodi:nodetypes="ccccccccccccc"
         inkscape:path-effect="#path-effect4"
         inkscape:original-d="m 104.99979,77.084184 c -39.441795,1.14e-4 -71.415663,31.973986 -71.415793,71.415796 1.28e-4,39.44181 31.973996,71.41569 71.415793,71.4158 39.442,1.8e-4 71.41619,-31.97378 71.41632,-71.4158 -0.0481,-1.93394 0.35951,-4.80029 0.15455,-6.72395 -0.61182,0.0676 -1.76072,1.04307 -2.37612,1.05608 -8.24905,0 -13.84691,-7.28352 -17.16108,-14.83753 -2.14639,0.72651 -6.26747,3.5018 -8.53348,3.50179 -11.47783,-1.4e-4 -20.78234,-9.30488 -20.78219,-20.78271 -9e-5,-4.52614 4.95089,-9.19576 7.68147,-12.805446 -2.49186,-3.51371 -6.90301,-6.64615 -6.90294,-10.953765 0.009,-1.639649 1.01416,-3.673222 1.40722,-5.265087 -7.60567,-2.732424 -16.8223,-4.554862 -24.90375,-4.605178 z" />
      <path
         sodipodi:type="star"
         style="fill:#6c3b0a;fill-opacity:1;stroke:none;stroke-width:0.264583;stroke-opacity:1"
         id="path4"
         inkscape:flatsided="false"
         sodipodi:sides="3"
         sodipodi:cx="31.261137"
         sodipodi:cy="16.031351"
         sodipodi:r1="16.252485"
         sodipodi:r2="8.1262426"
         sodipodi:arg1="-1.0924439"
         sodipodi:arg2="-0.045246344"
         inkscape:rounded="0"
         inkscape:randomized="0"
         d="m 38.981782,6.8893844 0.157934,3.4881586 0.636628,14.06066 A 3.0551451,3.0551451 147.40758 0 1 35.31799,27.288609 L 32.218189,25.681305 19.722986,19.202311 A 3.0551451,3.0551451 87.407575 0 1 19.483639,13.91606 l 2.941867,-1.880854 11.858575,-7.5816665 a 3.0551451,3.0551451 27.407575 0 1 4.697701,2.4358449 z"
         inkscape:transform-center-x="3.7406489"
         inkscape:transform-center-y="-0.36755732"
         transform="translate(37.940867,90.844329)"
         inkscape:path-effect="#path-effect5" />
      <path
         sodipodi:type="star"
         style="fill:#6c3b0a;fill-opacity:1;stroke:none;stroke-width:0.264583;stroke-opacity:1"
         id="path5"
         inkscape:flatsided="false"
         sodipodi:sides="3"
         sodipodi:cx="31.261137"
         sodipodi:cy="16.031351"
         sodipodi:r1="16.252485"
         sodipodi:r2="8.1262426"
         sodipodi:arg1="-1.0924439"
         sodipodi:arg2="-0.045246344"
         inkscape:rounded="0"
         inkscape:randomized="0"
         d="m 38.981782,6.8893844 0.157934,3.4881586 0.636628,14.06066 A 3.0551451,3.0551451 147.40758 0 1 35.31799,27.288609 L 32.218189,25.681305 19.722986,19.202311 A 3.0551451,3.0551451 87.407575 0 1 19.483639,13.91606 l 2.941867,-1.880854 11.858575,-7.5816665 a 3.0551451,3.0551451 27.407575 0 1 4.697701,2.4358449 z"
         inkscape:transform-center-x="1.0313957"
         inkscape:transform-center-y="2.8784335"
         transform="rotate(-100.55015,153.71267,51.767793)"
         inkscape:path-effect="#path-effect7" />
      <path
         sodipodi:type="star"
         style="fill:#6c3b0a;fill-opacity:1;stroke:none;stroke-width:0.264583;stroke-opacity:1"
         id="path7"
         inkscape:flatsided="false"
         sodipodi:sides="3"
         sodipodi:cx="31.261137"
         sodipodi:cy="16.031351"
         sodipodi:r1="16.252485"
         sodipodi:r2="8.1262426"
         sodipodi:arg1="-1.0924439"
         sodipodi:arg2="-0.045246344"
         inkscape:rounded="0"
         inkscape:randomized="0"
         d="m 38.981782,6.8893844 0.157934,3.4881586 0.636628,14.06066 A 3.0551451,3.0551451 147.40758 0 1 35.31799,27.288609 L 32.218189,25.681305 19.722986,19.202311 A 3.0551451,3.0551451 87.407575 0 1 19.483639,13.91606 l 2.941867,-1.880854 11.858575,-7.5816665 a 3.0551451,3.0551451 27.407575 0 1 4.697701,2.4358449 z"
         inkscape:transform-center-x="1.3488075"
         inkscape:transform-center-y="-2.2567897"
         transform="matrix(1.4661624,-1.0372646,0.94772322,1.4847787,16.550873,185.42393)"
         inkscape:path-effect="#path-effect9" />
      <text
         xml:space="preserve"
         transform="matrix(0.65993548,0,0,0.65993548,24.795904,-76.498499)"
         id="text9"
         style="font-style:normal;font-variant:normal;font-weight:normal;font-stretch:normal;font-size:192px;font-family:'Mat Saleh';-inkscape-font-specification:'Mat Saleh, Normal';font-variant-ligatures:normal;font-variant-caps:normal;font-variant-numeric:normal;font-variant-east-asian:normal;text-align:start;writing-mode:lr-tb;direction:ltr;white-space:pre;shape-inside:url(#rect9);fill:#f4eed7;fill-opacity:1;stroke:none;stroke-opacity:1"><tspan
           x="58.570312"
           y="412.09424"
           id="tspan3">N</tspan></text>
    </g>
  </g>
</svg>
