<?xml version="1.0" encoding="UTF-8" standalone="no"?>
<!-- Created with Inkscape (http://www.inkscape.org/) -->

<svg
   width="220"
   height="45.127998"
   viewBox="0 0 58.20851 11.940085"
   version="1.1"
   id="svg1"
   inkscape:version="1.4.2 (ebf0e940d0, 2025-05-08)"
   sodipodi:docname="titleNhomNhom.svg"
   xmlns:inkscape="http://www.inkscape.org/namespaces/inkscape"
   xmlns:sodipodi="http://sodipodi.sourceforge.net/DTD/sodipodi-0.dtd"
   xmlns="http://www.w3.org/2000/svg"
   xmlns:svg="http://www.w3.org/2000/svg">
  <sodipodi:namedview
     id="namedview1"
     pagecolor="#ffffff"
     bordercolor="#000000"
     borderopacity="0.25"
     inkscape:showpageshadow="2"
     inkscape:pageopacity="0.0"
     inkscape:pagecheckerboard="0"
     inkscape:deskcolor="#d1d1d1"
     inkscape:document-units="mm"
     inkscape:zoom="2.8008418"
     inkscape:cx="107.11066"
     inkscape:cy="59.981968"
     inkscape:window-width="1920"
     inkscape:window-height="997"
     inkscape:window-x="0"
     inkscape:window-y="0"
     inkscape:window-maximized="1"
     inkscape:current-layer="g9" />
  <defs
     id="defs1">
    <rect
       x="58.571239"
       y="215.09782"
       width="228.22586"
       height="58.571239"
       id="rect9" />
    <inkscape:path-effect
       effect="fillet_chamfer"
       id="path-effect9"
       is_visible="true"
       lpeversion="1"
       nodesatellites_param="F,0,0,1,0,5.2916665,0,1 @ F,0,0,1,0,5.2916665,0,1 @ F,0,0,1,0,5.2916665,0,1 @ F,0,0,1,0,5.2916665,0,1 @ F,0,0,1,0,5.2916665,0,1 @ F,0,0,1,0,5.2916665,0,1"
       radius="20"
       unit="px"
       method="auto"
       mode="F"
       chamfer_steps="1"
       flexible="false"
       use_knot_distance="true"
       apply_no_radius="true"
       apply_with_radius="true"
       only_selected="false"
       hide_knots="false" />
    <inkscape:path-effect
       effect="fillet_chamfer"
       id="path-effect7"
       is_visible="true"
       lpeversion="1"
       nodesatellites_param="F,0,0,1,0,5.2916665,0,1 @ F,0,0,1,0,5.2916665,0,1 @ F,0,0,1,0,5.2916665,0,1 @ F,0,0,1,0,5.2916665,0,1 @ F,0,0,1,0,5.2916665,0,1 @ F,0,0,1,0,5.2916665,0,1"
       radius="20"
       unit="px"
       method="auto"
       mode="F"
       chamfer_steps="1"
       flexible="false"
       use_knot_distance="true"
       apply_no_radius="true"
       apply_with_radius="true"
       only_selected="false"
       hide_knots="false" />
    <inkscape:path-effect
       effect="fillet_chamfer"
       id="path-effect5"
       is_visible="true"
       lpeversion="1"
       nodesatellites_param="F,0,0,1,0,5.2916665,0,1 @ F,0,0,1,0,5.2916665,0,1 @ F,0,0,1,0,5.2916665,0,1 @ F,0,0,1,0,5.2916665,0,1 @ F,0,0,1,0,5.2916665,0,1 @ F,0,0,1,0,5.2916665,0,1"
       radius="20"
       unit="px"
       method="auto"
       mode="F"
       chamfer_steps="1"
       flexible="false"
       use_knot_distance="true"
       apply_no_radius="true"
       apply_with_radius="true"
       only_selected="false"
       hide_knots="false" />
    <inkscape:path-effect
       effect="fillet_chamfer"
       id="path-effect4"
       is_visible="true"
       lpeversion="1"
       nodesatellites_param="F,1,0,1,0,0.06,0,1 @ F,1,0,1,0,0.06,0,1 @ F,1,0,1,0,0.06,0,1 @ F,1,0,1,0,0.06,0,1 @ F,1,0,1,0,0.18,0,1 @ F,1,0,1,0,0.06,0,1 @ F,1,0,1,0,0.14,0,1 @ F,1,0,1,0,0.06,0,1 @ F,1,0,1,0,0.19708184,0,1 @ F,1,0,1,0,0.06,0,1 @ F,1,0,1,0,0.06,0,1 @ F,1,0,1,0,0.06,0,1"
       radius="18"
       unit="px"
       method="auto"
       mode="F"
       chamfer_steps="1"
       flexible="true"
       use_knot_distance="true"
       apply_no_radius="true"
       apply_with_radius="true"
       only_selected="true"
       hide_knots="false" />
    <inkscape:path-effect
       effect="fillet_chamfer"
       id="path-effect3"
       is_visible="true"
       lpeversion="1"
       nodesatellites_param="F,1,0,1,0,0.031485532,0,1 @ F,1,0,1,0,0.031485517,0,1 @ F,1,0,1,0,0.031485368,0,1 @ F,1,0,1,0,0.63834629,0,1 @ F,1,0,1,0,2.0062512,0,1 @ F,1,0,1,0,0.15154057,0,1 @ F,1,0,1,0,0.54615098,0,1 @ F,1,0,1,0,0.10956192,0,1 @ F,1,0,1,0,0.27443353,0,1 @ F,1,0,1,0,0.2882519,0,1 @ F,1,0,1,0,0.75401607,0,1 @ F,1,0,1,0,0.15293342,0,1"
       radius="0"
       unit="px"
       method="auto"
       mode="F"
       chamfer_steps="1"
       flexible="false"
       use_knot_distance="false"
       apply_no_radius="false"
       apply_with_radius="false"
       only_selected="false"
       hide_knots="false" />
  </defs>
  <g
     inkscape:label="Camada 1"
     inkscape:groupmode="layer"
     id="layer1">
    <g
       id="g9"
       transform="matrix(0.4208759,0,0,0.4208759,-16.010426,-26.123148)">
      <path
         d="m 44.166748,77.856366 c 0.160302,0.187019 0.293886,0.34732 0.427471,0.507621 0.988525,1.362562 1.950334,2.751841 2.965576,4.087686 0.561055,0.748073 1.20226,1.46943 1.843466,2.164069 0.480904,0.507621 1.095393,0.828224 1.790032,0.908375 1.335845,0.133584 2.431238,-0.748074 2.698407,-2.217503 0.160301,-0.854941 0.240452,-1.736599 0.320603,-2.591539 0.187018,-2.484672 0.347319,-4.969344 0.534338,-7.454015 0.08015,-0.935092 0.187018,-1.8969 0.240452,-2.831992 0.08015,-0.935091 -0.267169,-1.683165 -1.12211,-2.137352 -1.389279,-0.721356 -3.045727,0.05343 -3.232745,1.629731 -0.240452,2.030484 -0.374036,4.087686 -0.534338,6.144887 -0.08015,0.694639 -0.106867,1.389279 -0.187018,2.217503 -0.240452,-0.320603 -0.400754,-0.507621 -0.534338,-0.69464 -1.442713,-2.137352 -2.885425,-4.274704 -4.354855,-6.412056 -0.400753,-0.614488 -0.801507,-1.228977 -1.309128,-1.763315 -0.694639,-0.748073 -1.576297,-0.935092 -2.538105,-0.587772 -0.908375,0.293886 -1.46943,1.095393 -1.46943,2.137352 -0.08015,4.007535 -0.133584,8.041787 -0.187018,12.076039 0,0.454187 0.08015,0.908375 0.374036,1.282411 0.534338,0.721356 1.282412,1.041959 2.164069,0.881658 0.908375,-0.160302 1.522864,-0.667923 1.763316,-1.576297 0.08015,-0.320603 0.106867,-0.641206 0.133584,-0.988526 0.05343,-1.496146 0.08015,-3.019009 0.133585,-4.541873 0,-0.05343 0.05343,-0.106867 0.08015,-0.240452 z m 17.499589,0.721357 c -0.05343,-1.656448 2.59154,-2.457955 2.725124,0.02672 0.02672,0.667922 -0.02672,1.335845 -0.05343,2.003767 0,0.641206 -0.106867,1.228977 -0.106867,1.870183 0.02672,1.228977 0.935091,2.137352 2.164069,2.190786 1.175543,0.02672 2.137352,-0.77479 2.270936,-2.003768 0.08015,-0.801507 0.213735,-1.576297 0.213735,-2.377804 0,-1.12211 0.02672,-2.297653 -0.133584,-3.393046 -0.267169,-1.763315 -1.309128,-2.938859 -3.01901,-3.499914 -0.908375,-0.293886 -1.843466,-0.34732 -2.778558,-0.160301 -0.507621,0.08015 -1.015242,0.160301 -1.522863,0.267169 0,-1.335845 0,-2.564823 -0.02672,-3.7938 0,-0.293886 0,-0.587772 -0.08015,-0.908375 -0.213736,-1.20226 -1.228978,-1.950333 -2.377804,-1.843466 -1.175544,0.106868 -2.003768,0.988525 -2.030485,2.24422 -0.02672,0.534338 0,1.095393 0,1.656448 0.02672,3.232744 0,6.465489 0.05343,9.724951 0,0.77479 0.08015,1.576297 0.240452,2.351087 0.213735,1.12211 1.282411,1.843466 2.404521,1.736599 1.148827,-0.133585 1.923617,-1.015242 1.977051,-2.190786 0.02672,-0.187018 -0.02672,-0.400753 -0.02672,-0.587772 -0.02672,-1.095393 -0.05343,-2.190786 0.106867,-3.312895 z m 37.162637,-5.129645 c -0.240452,-0.267169 -0.400753,-0.454187 -0.587772,-0.667923 -1.255694,-1.255694 -3.767082,-1.736598 -5.637265,-0.748073 -0.801507,0.427471 -1.415996,0.988525 -1.950334,1.683165 -0.854941,1.095393 -1.309128,2.351087 -1.496147,3.713649 -0.187018,1.496146 -0.05343,2.965576 0.08015,4.435005 0.05343,0.507621 0.08015,0.988526 0.240452,1.415996 0.320603,1.095393 1.496147,1.709882 2.564823,1.496146 1.20226,-0.240452 1.870183,-1.148826 1.763315,-2.404521 -0.02672,-0.240452 -0.08015,-0.480904 -0.106868,-0.721356 -0.02672,-0.667922 -0.02672,-1.309128 -0.05343,-1.950334 -0.187019,-4.247987 1.923616,-3.900667 2.351087,-0.08015 0.08015,0.667922 0.08015,1.335845 0.08015,2.003767 -0.02672,0.507621 0,1.041959 0.106867,1.496147 0.240452,1.122109 1.175544,1.763315 2.377804,1.709881 1.041959,-0.05343 1.870184,-0.801507 2.030484,-1.870183 0.0534,-0.293886 0.0534,-0.587772 0.0267,-0.881657 -0.0534,-0.988526 -0.10687,-2.003768 0,-2.992293 0.3206,-2.912142 2.43123,-3.7938 2.64497,-0.400754 0,1.255695 -0.10687,2.511389 -0.13358,3.740366 -0.0267,1.255695 0.88165,2.190786 2.08391,2.270937 1.20226,0.02672 2.27094,-0.748073 2.35109,-1.950334 0.10687,-1.603014 0.21374,-3.232745 0.13359,-4.862476 -0.0802,-1.8969 -0.88166,-3.580064 -2.29766,-4.969343 -1.09539,-1.041959 -2.3778,-1.389279 -3.84723,-0.961809 -0.98853,0.293886 -1.896901,0.774791 -2.725125,1.496147 z m 15.495806,4.408288 c 0.16031,0.187019 0.29389,0.34732 0.42747,0.507621 0.98853,1.362562 1.95034,2.751841 2.96558,4.087686 0.56105,0.748073 1.20226,1.46943 1.84347,2.164069 0.4809,0.507621 1.09539,0.828224 1.79003,0.908375 1.33584,0.133584 2.43124,-0.748074 2.69841,-2.217503 0.1603,-0.854941 0.24045,-1.736599 0.3206,-2.591539 0.18702,-2.484672 0.34732,-4.969344 0.53434,-7.454015 0.0802,-0.935092 0.18701,-1.8969 0.24045,-2.831992 0.0802,-0.935091 -0.26717,-1.683165 -1.12211,-2.137352 -1.38928,-0.721356 -3.04573,0.05343 -3.23275,1.629731 -0.24045,2.030484 -0.37403,4.087686 -0.53433,6.144887 -0.0802,0.694639 -0.10687,1.389279 -0.18702,2.217503 -0.24045,-0.320603 -0.40076,-0.507621 -0.53434,-0.69464 -1.44271,-2.137352 -2.88543,-4.274704 -4.35486,-6.412056 -0.40075,-0.614488 -0.8015,-1.228977 -1.30912,-1.763315 -0.69464,-0.748073 -1.5763,-0.935092 -2.53811,-0.587772 -0.90837,0.293886 -1.46943,1.095393 -1.46943,2.137352 -0.0802,4.007535 -0.13358,8.041787 -0.18702,12.076039 0,0.454187 0.0802,0.908375 0.37404,1.282411 0.53434,0.721356 1.28241,1.041959 2.16407,0.881658 0.90837,-0.160302 1.52286,-0.667923 1.76331,-1.576297 0.0802,-0.320603 0.10687,-0.641206 0.13359,-0.988526 0.0534,-1.496146 0.0801,-3.019009 0.13358,-4.541873 0,-0.05343 0.0534,-0.106867 0.0802,-0.240452 z m 17.4996,0.721357 c -0.0534,-1.656448 2.59154,-2.457955 2.72512,0.02672 0.0267,0.667922 -0.0267,1.335845 -0.0534,2.003767 0,0.641206 -0.10687,1.228977 -0.10687,1.870183 0.0267,1.228977 0.93509,2.137352 2.16407,2.190786 1.17554,0.02672 2.13735,-0.77479 2.27094,-2.003768 0.0802,-0.801507 0.21373,-1.576297 0.21373,-2.377804 0,-1.12211 0.0267,-2.297653 -0.13358,-3.393046 -0.26717,-1.763315 -1.30913,-2.938859 -3.01901,-3.499914 -0.90838,-0.293886 -1.84347,-0.34732 -2.77856,-0.160301 -0.50762,0.08015 -1.01524,0.160301 -1.52286,0.267169 0,-1.335845 0,-2.564823 -0.0267,-3.7938 0,-0.293886 0,-0.587772 -0.0802,-0.908375 -0.21374,-1.20226 -1.22898,-1.950333 -2.37781,-1.843466 -1.17554,0.106868 -2.00376,0.988525 -2.03048,2.24422 -0.0267,0.534338 0,1.095393 0,1.656448 0.0267,3.232744 0,6.465489 0.0534,9.724951 0,0.77479 0.0801,1.576297 0.24046,2.351087 0.21373,1.12211 1.28241,1.843466 2.40452,1.736599 1.14882,-0.133585 1.92361,-1.015242 1.97705,-2.190786 0.0267,-0.187018 -0.0267,-0.400753 -0.0267,-0.587772 -0.0267,-1.095393 -0.0534,-2.190786 0.10687,-3.312895 z m 15.49583,6.11817 c 1.79003,0.02672 3.36633,-0.561055 4.64874,-1.843466 1.70988,-1.763316 2.56482,-4.354855 1.95033,-6.919677 -0.90837,-3.606782 -4.54187,-4.809042 -7.66775,-3.980819 -3.12588,0.828224 -5.45025,3.820517 -5.20979,7.186847 0.26716,3.339612 3.28617,5.690699 6.27847,5.557115 z m 1.20226,-4.622024 c -1.17555,0.988525 -2.9923,0.240452 -2.9923,-1.335845 -0.0267,-1.362562 0.9351,-2.67169 2.53811,-2.912142 0.58777,-0.106868 1.25569,0.34732 1.44271,0.935091 0.34732,1.095393 -0.0802,2.618257 -0.98852,3.312896 z m 17.44614,-6.625791 c -0.24045,-0.267169 -0.40076,-0.454187 -0.58777,-0.667923 -1.2557,-1.255694 -3.76709,-1.736598 -5.63727,-0.748073 -0.80151,0.427471 -1.416,0.988525 -1.95033,1.683165 -0.85494,1.095393 -1.30913,2.351087 -1.49615,3.713649 -0.18702,1.496146 -0.0534,2.965576 0.0802,4.435005 0.0534,0.507621 0.0802,0.988526 0.24045,1.415996 0.32061,1.095393 1.49615,1.709882 2.56482,1.496146 1.20227,-0.240452 1.87019,-1.148826 1.76332,-2.404521 -0.0267,-0.240452 -0.0802,-0.480904 -0.10687,-0.721356 -0.0267,-0.667922 -0.0267,-1.309128 -0.0534,-1.950334 -0.18702,-4.247987 1.92362,-3.900667 2.35109,-0.08015 0.0802,0.667922 0.0802,1.335845 0.0802,2.003767 -0.0267,0.507621 0,1.041959 0.10686,1.496147 0.24046,1.122109 1.17555,1.763315 2.37781,1.709881 1.04196,-0.05343 1.87018,-0.801507 2.03048,-1.870183 0.0534,-0.293886 0.0534,-0.587772 0.0267,-0.881657 -0.0534,-0.988526 -0.10687,-2.003768 0,-2.992293 0.3206,-2.912142 2.43124,-3.7938 2.64497,-0.400754 0,1.255695 -0.10686,2.511389 -0.13358,3.740366 -0.0267,1.255695 0.88166,2.190786 2.08392,2.270937 1.20226,0.02672 2.27093,-0.748073 2.35108,-1.950334 0.10687,-1.603014 0.21374,-3.232745 0.13359,-4.862476 -0.0802,-1.8969 -0.88166,-3.580064 -2.29766,-4.969343 -1.09539,-1.041959 -2.3778,-1.389279 -3.84723,-0.961809 -0.98852,0.293886 -1.8969,0.774791 -2.72512,1.496147 z"
         id="text2"
         style="font-size:26.7169px;font-family:'Mat Saleh';-inkscape-font-specification:'Mat Saleh, Normal';fill:#6c3b0a;stroke-width:0.139151"
         aria-label="NhmNhom" />
      <path
         id="path1"
         style="fill:#e1b361;fill-opacity:1;stroke:none;stroke-width:0.0471835"
         d="m 78.123111,63.576159 c -6.035192,0.588297 -10.836009,5.389115 -11.424308,11.424308 -0.06709,0.688316 -0.06709,1.813171 0,2.501486 0.588299,6.035192 5.389112,10.83601 11.424302,11.424308 0.688317,0.0671 1.81318,0.0671 2.501497,1.1e-5 6.425969,-0.626346 11.452566,-6.028393 11.48488,-12.611255 1.73e-4,-0.03524 -5.35e-4,-0.09237 -5.35e-4,-0.127609 3.56e-4,-0.317854 0.05421,-0.747427 0.03413,-1.065385 -0.0024,-0.03866 -0.03744,-0.065 -0.07297,-0.0496 -0.03699,0.01603 -0.07843,0.03943 -0.120594,0.06372 -0.123501,0.07113 -0.352916,0.105836 -0.495731,0.09055 -1.267656,-0.135643 -2.158784,-1.254124 -2.720548,-2.455391 -0.04542,-0.09713 -0.162316,-0.148058 -0.25971,-0.103313 -0.285605,0.131211 -0.666758,0.353646 -0.988217,0.471755 -0.188037,0.06909 -0.517647,0.08106 -0.717951,0.06154 -1.714497,-0.167143 -3.086659,-1.502526 -3.310219,-3.199866 -0.03532,-0.268161 -0.03201,-0.714639 0.06116,-0.967263 0.222758,-0.603997 0.797262,-1.198679 1.191091,-1.694704 0.04798,-0.06043 0.0496,-0.161515 0.0022,-0.222461 -0.441297,-0.567862 -1.113311,-1.092579 -1.146308,-1.787988 -0.0014,-0.02941 -0.0012,-0.07724 8.91e-4,-0.106658 0.01453,-0.199428 0.09984,-0.425895 0.171887,-0.635754 0.04688,-0.13654 -0.03325,-0.289671 -0.170217,-0.335743 -0.916109,-0.308164 -1.944399,-0.541728 -2.94438,-0.656586 -0.686992,-0.07891 -1.812036,-0.08519 -2.50035,-0.0181 z"
         sodipodi:nodetypes="ccccccccccccc" />
      <g
         id="g1"
         style="stroke:none"
         transform="matrix(0.17833158,0,0,0.17833158,60.649075,49.768974)">
        <path
           id="path4"
           transform="translate(37.940867,90.844329)"
           inkscape:transform-center-x="3.7406489"
           inkscape:transform-center-y="-0.36755732"
           d="m 38.981782,6.8893844 0.157934,3.4881586 0.636628,14.06066 A 3.0551451,3.0551451 147.40758 0 1 35.31799,27.288609 L 32.218189,25.681305 19.722986,19.202311 A 3.0551451,3.0551451 87.407575 0 1 19.483639,13.91606 l 2.941867,-1.880854 11.858575,-7.5816665 a 3.0551451,3.0551451 27.407575 0 1 4.697701,2.4358449 z"
           style="fill:#6c3b0a;fill-opacity:1;stroke:none;stroke-width:0.264583;stroke-opacity:1" />
        <path
           id="path5"
           transform="rotate(-100.55015,153.71267,51.767793)"
           inkscape:transform-center-x="1.0313957"
           inkscape:transform-center-y="2.8784335"
           d="m 38.981782,6.8893844 0.157934,3.4881586 0.636628,14.06066 A 3.0551451,3.0551451 147.40758 0 1 35.31799,27.288609 L 32.218189,25.681305 19.722986,19.202311 A 3.0551451,3.0551451 87.407575 0 1 19.483639,13.91606 l 2.941867,-1.880854 11.858575,-7.5816665 a 3.0551451,3.0551451 27.407575 0 1 4.697701,2.4358449 z"
           style="fill:#6c3b0a;fill-opacity:1;stroke:none;stroke-width:0.264583;stroke-opacity:1" />
        <path
           id="path7"
           transform="matrix(1.4661624,-1.0372646,0.94772322,1.4847787,16.550873,185.42393)"
           inkscape:transform-center-x="1.3488075"
           inkscape:transform-center-y="-2.2567897"
           d="m 38.981782,6.8893844 0.157934,3.4881586 0.636628,14.06066 A 3.0551451,3.0551451 147.40758 0 1 35.31799,27.288609 L 32.218189,25.681305 19.722986,19.202311 A 3.0551451,3.0551451 87.407575 0 1 19.483639,13.91606 l 2.941867,-1.880854 11.858575,-7.5816665 a 3.0551451,3.0551451 27.407575 0 1 4.697701,2.4358449 z"
           style="fill:#6c3b0a;fill-opacity:1;stroke:none;stroke-width:0.264583;stroke-opacity:1" />
      </g>
    </g>
  </g>
</svg>
